name C:\Users\r0593348\3dpredictsim\Results\MidTarsalJoint\Fal_s1_bCst_PF_Natali2010_ls150_MT_k100_d020_MTP_T5_ig21.mot
datacolumns 128
datarows 4
range 0.00000000 0.03454300
endheader
time	pelvis_tilt	pelvis_list	pelvis_rotation	pelvis_tx	pelvis_ty	pelvis_tz	hip_flexion_l	hip_adduction_l	hip_rotation_l	hip_flexion_r	hip_adduction_r	hip_rotation_r	knee_angle_l	knee_angle_r	ankle_angle_l	ankle_angle_r	subtalar_angle_l	subtalar_angle_r	mtj_angle_l	mtj_angle_r	mtp_angle_l	mtp_angle_r	lumbar_extension	lumbar_bending	lumbar_rotation	arm_flex_l	arm_add_l	arm_rot_l	arm_flex_r	arm_add_r	arm_rot_r	elbow_flex_l	elbow_flex_r	pro_sup_l	pro_sup_r	glut_med1_l/activation	glut_med2_l/activation	glut_med3_l/activation	glut_min1_l/activation	glut_min2_l/activation	glut_min3_l/activation	semimem_l/activation	semiten_l/activation	bifemlh_l/activation	bifemsh_l/activation	sar_l/activation	add_long_l/activation	add_brev_l/activation	add_mag1_l/activation	add_mag2_l/activation	add_mag3_l/activation	tfl_l/activation	pect_l/activation	grac_l/activation	glut_max1_l/activation	glut_max2_l/activation	glut_max3_l/activation	iliacus_l/activation	psoas_l/activation	quad_fem_l/activation	gem_l/activation	peri_l/activation	rect_fem_l/activation	vas_med_l/activation	vas_int_l/activation	vas_lat_l/activation	med_gas_l/activation	lat_gas_l/activation	soleus_l/activation	tib_post_l/activation	flex_dig_l/activation	flex_hal_l/activation	tib_ant_l/activation	per_brev_l/activation	per_long_l/activation	per_tert_l/activation	ext_dig_l/activation	ext_hal_l/activation	ercspn_l/activation	intobl_l/activation	extobl_l/activation	glut_med1_r/activation	glut_med2_r/activation	glut_med3_r/activation	glut_min1_r/activation	glut_min2_r/activation	glut_min3_r/activation	semimem_r/activation	semiten_r/activation	bifemlh_r/activation	bifemsh_r/activation	sar_r/activation	add_long_r/activation	add_brev_r/activation	add_mag1_r/activation	add_mag2_r/activation	add_mag3_r/activation	tfl_r/activation	pect_r/activation	grac_r/activation	glut_max1_r/activation	glut_max2_r/activation	glut_max3_r/activation	iliacus_r/activation	psoas_r/activation	quad_fem_r/activation	gem_r/activation	peri_r/activation	rect_fem_r/activation	vas_med_r/activation	vas_int_r/activation	vas_lat_r/activation	med_gas_r/activation	lat_gas_r/activation	soleus_r/activation	tib_post_r/activation	flex_dig_r/activation	flex_hal_r/activation	tib_ant_r/activation	per_brev_r/activation	per_long_r/activation	per_tert_r/activation	ext_dig_r/activation	ext_hal_r/activation	ercspn_r/activation	intobl_r/activation	extobl_r/activation	
          0.00000000	         -2.92993148	         -2.36790124	          5.82293195	          0.00000000	          0.91778405	         -0.00177193	        -16.26314245	         -1.57030288	          6.58826987	         29.47905951	          3.43903982	         -1.85775732	         -8.72073921	        -10.16863493	         -4.22329055	          5.56040294	         10.49027753	         -5.53633091	         11.38781515	         -0.08015934	          0.43292770	         -0.80366253	         -1.86279217	          0.41256883	         -2.26056378	          5.38713933	        -13.45084257	         16.41450576	         -5.76251185	        -13.48835520	          5.84334945	         34.67767598	         17.09162961	         86.51662706	         86.51662706	          0.24782639	          0.11489609	          0.08466724	          0.26515552	          0.20308186	          0.12027602	          0.05000069	          0.05000017	          0.05000012	          0.05416980	          0.12026964	          0.05000040	          0.05000028	          0.05000024	          0.05000051	          0.05000022	          0.33799233	          0.05004689	          0.05000108	          0.05000192	          0.05000109	          0.05000051	          0.47077159	          0.66115523	          0.05000020	          0.05000050	          0.05072130	          0.28022098	          0.05000020	          0.05000019	          0.05000018	          0.31526181	          0.43142154	          0.38677044	          0.26695574	          0.24163503	          0.31395004	          0.05000003	          0.05687356	          0.14516443	          0.05000021	          0.05000005	          0.05000020	          0.05000001	          0.05000001	          0.05000006	          0.05959516	          0.05959513	          0.05000014	          0.05959527	          0.05959524	          0.05004414	          0.23141678	          0.07798498	          0.14437237	          0.05959533	          0.05000029	          0.14336805	          0.27138873	          0.14498252	          0.17036868	          0.11297673	          0.05000009	          0.07536895	          0.13369392	          0.05000072	          0.09899585	          0.16310062	          0.05000081	          0.05000011	          0.15340188	          0.26060037	          0.12131784	          0.05000010	          0.09115911	          0.08944538	          0.08142248	          0.05801302	          0.06799148	          0.05759008	          0.05000002	          0.05000034	          0.05000018	          0.47122077	          0.24549206	          0.16773742	          0.19505656	          0.43819121	          0.19664650	          0.05853691	          0.11863108	          0.10718223	
          0.01151433	         -2.92958446	         -2.46134125	          6.13620896	          0.01717858	          0.91661051	         -0.00157293	        -16.25046802	         -1.88919733	          6.39432933	         28.87829198	          3.80066457	         -1.61800677	        -10.45827185	        -10.49402946	         -4.59977135	          4.84566303	         11.38738212	         -5.88471342	         10.50017888	         -0.03746402	          1.60667580	         -0.81262584	         -1.66831719	          0.60023312	         -2.32986954	          5.16915214	        -13.45638512	         16.77579326	         -6.65556309	        -13.48528747	          5.73807906	         35.85318441	         16.66282898	         86.51662706	         86.51662706	          0.20792457	          0.09639703	          0.07103531	          0.22246368	          0.17038428	          0.10091078	          0.05000214	          0.05000050	          0.05000053	          0.05000020	          0.10090564	          0.10409011	          0.05123189	          0.05959613	          0.05959325	          0.05959505	          0.28357329	          0.05959643	          0.05022640	          0.05000277	          0.05000211	          0.05000360	          0.39497477	          0.63168864	          0.05189468	          0.05964216	          0.07103157	          0.25486467	          0.06547862	          0.14105247	          0.12742460	          0.26450239	          0.36397060	          0.36450464	          0.24707419	          0.20273674	          0.27830556	          0.05000009	          0.05000016	          0.16581434	          0.05000022	          0.05000007	          0.05000035	          0.05107518	          0.06635614	          0.05959532	          0.05000000	          0.05000003	          0.08618268	          0.05000004	          0.05000004	          0.05000006	          0.19415704	          0.06542888	          0.12112738	          0.05000021	          0.05156528	          0.12028514	          0.27771445	          0.30388899	          0.20165661	          0.11232789	          0.05000036	          0.07103000	          0.13194179	          0.05000217	          0.10362975	          0.14099084	          0.05000017	          0.07103159	          0.49746888	          0.21864184	          0.10178483	          0.05959612	          0.10510787	          0.10611299	          0.09109035	          0.05959521	          0.06617611	          0.05000003	          0.05959561	          0.05001016	          0.05959553	          0.43037859	          0.25760641	          0.20403131	          0.16365113	          0.39213403	          0.16498504	          0.05000000	          0.09953061	          0.08992511	
          0.02302867	         -2.92527769	         -2.55679209	          6.41695165	          0.03468351	          0.91553399	         -0.00139405	        -16.18371718	         -2.20932906	          6.19813732	         28.18106306	          4.07418901	         -1.35137657	        -12.27200011	        -11.11838132	         -5.07741525	          4.22521039	         12.23454019	         -6.24466890	          9.32304614	         -0.27100794	          3.10908142	         -0.83016618	         -1.45150758	          0.79921604	         -2.38559835	          4.86745388	        -13.45694174	         17.05712824	         -7.57876017	        -13.48756531	          5.69421308	         37.00300698	         16.28818780	         86.51662706	         86.51662706	          0.29260350	          0.08087653	          0.05959857	          0.28167935	          0.14295145	          0.08466351	          0.05000147	          0.05000020	          0.05000019	          0.05000019	          0.08466054	          0.08733089	          0.05000042	          0.05000094	          0.05000099	          0.05000073	          0.31977865	          0.05000221	          0.05000080	          0.05001670	          0.05000635	          0.05000195	          0.34776075	          0.60747228	          0.05000125	          0.05004007	          0.05959520	          0.21382968	          0.09516407	          0.11834259	          0.10690871	          0.22191557	          0.30536872	          0.31875391	          0.21376491	          0.17009521	          0.23349695	          0.05000002	          0.09529731	          0.17752928	          0.05000011	          0.05000002	          0.05000012	          0.05000002	          0.05567232	          0.05000007	          0.22172230	          0.20834257	          0.22989906	          0.29523013	          0.20562125	          0.17358161	          0.16289650	          0.06798492	          0.10162530	          0.07103363	          0.05000058	          0.10091840	          0.23300044	          0.25496072	          0.16918858	          0.12219598	          0.05000034	          0.05959558	          0.11069876	          0.05000071	          0.12762201	          0.11840927	          0.05364272	          0.05959504	          0.41737277	          0.18343899	          0.17585343	          0.05000072	          0.08818479	          0.08902808	          0.07642419	          0.05000021	          0.05552137	          0.05000044	          0.05000034	          0.05000039	          0.05000061	          0.49783842	          0.30581261	          0.17118103	          0.29820119	          0.47045889	          0.13842151	          0.05243547	          0.13539838	          0.07544651	
          0.03454300	         -2.91953374	         -2.64439270	          6.65673374	          0.05232091	          0.91463405	         -0.00119189	        -16.02777665	         -2.51845959	          6.01620260	         27.44279613	          4.31994858	         -1.08913171	        -14.19200386	        -11.70341095	         -5.66704539	          3.58508701	         13.03267948	         -6.59697740	          7.85095976	         -0.31883308	          4.92231378	         -0.76500733	         -1.23434132	          0.99969803	         -2.43270153	          4.51124060	        -13.46086490	         17.28081992	         -8.48575687	        -13.48779027	          5.70267476	         38.10563341	         15.95114603	         86.51662706	         86.51662706	          0.25520969	          0.06785487	          0.05000286	          0.25688206	          0.11993535	          0.07103213	          0.05000161	          0.05000016	          0.05000014	          0.05000018	          0.07103208	          0.07327086	          0.05000035	          0.05000042	          0.05000098	          0.05000060	          0.26943265	          0.05000226	          0.05000082	          0.05000239	          0.05000147	          0.05000079	          0.29177203	          0.57653535	          0.05000025	          0.05000105	          0.05000046	          0.17940156	          0.09584146	          0.09929550	          0.14335604	          0.18618554	          0.25620212	          0.26743219	          0.17934726	          0.14270880	          0.19590236	          0.05000004	          0.10667517	          0.18282732	          0.05000024	          0.05000050	          0.05000026	          0.06251042	          0.05000000	          0.05000003	          0.31108976	          0.30591053	          0.32560207	          0.24769606	          0.17251618	          0.17457342	          0.13666900	          0.06633031	          0.08526297	          0.05959689	          0.05000065	          0.08466982	          0.19548569	          0.21391031	          0.14194834	          0.14900822	          0.05000039	          0.05000089	          0.09287567	          0.19608945	          0.17956122	          0.14572211	          0.05000004	          0.05000006	          0.35017274	          0.15390403	          0.14753994	          0.05000006	          0.08218143	          0.10418528	          0.06839551	          0.05000002	          0.05000004	          0.05000000	          0.05000003	          0.05000011	          0.05000012	          0.56451659	          0.31041754	          0.17980793	          0.52995231	          0.50834512	          0.24533185	          0.07576849	          0.11359826	          0.06329908	
